<!DOCTYPE svg PUBLIC "-//W3C//DTD SVG 1.1//EN" "http://www.w3.org/Graphics/SVG/1.1/DTD/svg11.dtd">
<svg xmlns="http://www.w3.org/2000/svg" xmlns:xlink="http://www.w3.org/1999/xlink" version="1.1" width="772px" height="854px" viewBox="-0.5 -0.5 772 854"><defs><clipPath id="mx-clip-20-63-30-30-0"><rect x="20" y="63" width="30" height="30"/></clipPath><clipPath id="mx-clip-56-63-144-30-0"><rect x="56" y="63" width="144" height="30"/></clipPath><clipPath id="mx-clip-56-93-144-30-0"><rect x="56" y="93" width="144" height="30"/></clipPath><clipPath id="mx-clip-56-123-144-30-0"><rect x="56" y="123" width="144" height="30"/></clipPath><clipPath id="mx-clip-56-153-144-30-0"><rect x="56" y="153" width="144" height="30"/></clipPath><clipPath id="mx-clip-20-313-30-30-0"><rect x="20" y="313" width="30" height="30"/></clipPath><clipPath id="mx-clip-56-313-144-30-0"><rect x="56" y="313" width="144" height="30"/></clipPath><clipPath id="mx-clip-20-343-30-30-0"><rect x="20" y="343" width="30" height="30"/></clipPath><clipPath id="mx-clip-56-343-144-30-0"><rect x="56" y="343" width="144" height="30"/></clipPath><clipPath id="mx-clip-56-373-144-30-0"><rect x="56" y="373" width="144" height="30"/></clipPath><clipPath id="mx-clip-56-403-144-30-0"><rect x="56" y="403" width="144" height="30"/></clipPath><clipPath id="mx-clip-56-433-144-30-0"><rect x="56" y="433" width="144" height="30"/></clipPath><clipPath id="mx-clip-20-613-30-30-0"><rect x="20" y="613" width="30" height="30"/></clipPath><clipPath id="mx-clip-56-613-144-30-0"><rect x="56" y="613" width="144" height="30"/></clipPath><clipPath id="mx-clip-56-643-144-30-0"><rect x="56" y="643" width="144" height="30"/></clipPath><clipPath id="mx-clip-56-673-144-30-0"><rect x="56" y="673" width="144" height="30"/></clipPath><clipPath id="mx-clip-56-703-144-30-0"><rect x="56" y="703" width="144" height="30"/></clipPath><clipPath id="mx-clip-56-733-144-30-0"><rect x="56" y="733" width="144" height="30"/></clipPath><clipPath id="mx-clip-284-313-30-30-0"><rect x="284" y="313" width="30" height="30"/></clipPath><clipPath id="mx-clip-320-313-144-30-0"><rect x="320" y="313" width="144" height="30"/></clipPath><clipPath id="mx-clip-284-343-30-30-0"><rect x="284" y="343" width="30" height="30"/></clipPath><clipPath id="mx-clip-320-343-144-30-0"><rect x="320" y="343" width="144" height="30"/></clipPath><clipPath id="mx-clip-284-373-30-30-0"><rect x="284" y="373" width="30" height="30"/></clipPath><clipPath id="mx-clip-320-373-144-30-0"><rect x="320" y="373" width="144" height="30"/></clipPath><clipPath id="mx-clip-320-403-144-30-0"><rect x="320" y="403" width="144" height="30"/></clipPath><clipPath id="mx-clip-320-433-144-30-0"><rect x="320" y="433" width="144" height="30"/></clipPath><clipPath id="mx-clip-284-603-30-30-0"><rect x="284" y="603" width="30" height="30"/></clipPath><clipPath id="mx-clip-320-603-144-30-0"><rect x="320" y="603" width="144" height="30"/></clipPath><clipPath id="mx-clip-284-633-30-30-0"><rect x="284" y="633" width="30" height="30"/></clipPath><clipPath id="mx-clip-320-633-144-30-0"><rect x="320" y="633" width="144" height="30"/></clipPath><clipPath id="mx-clip-320-663-144-30-0"><rect x="320" y="663" width="144" height="30"/></clipPath><clipPath id="mx-clip-320-693-144-30-0"><rect x="320" y="693" width="144" height="30"/></clipPath><clipPath id="mx-clip-320-723-144-30-0"><rect x="320" y="723" width="144" height="30"/></clipPath><clipPath id="mx-clip-320-753-144-30-0"><rect x="320" y="753" width="144" height="30"/></clipPath><clipPath id="mx-clip-320-783-144-30-0"><rect x="320" y="783" width="144" height="30"/></clipPath><clipPath id="mx-clip-570-613-50-30-0"><rect x="570" y="613" width="50" height="30"/></clipPath><clipPath id="mx-clip-626-613-124-30-0"><rect x="626" y="613" width="124" height="30"/></clipPath><clipPath id="mx-clip-570-643-50-30-0"><rect x="570" y="643" width="50" height="30"/></clipPath><clipPath id="mx-clip-626-643-124-30-0"><rect x="626" y="643" width="124" height="30"/></clipPath><clipPath id="mx-clip-626-673-124-30-0"><rect x="626" y="673" width="124" height="30"/></clipPath><clipPath id="mx-clip-626-703-124-30-0"><rect x="626" y="703" width="124" height="30"/></clipPath><clipPath id="mx-clip-570-58-30-30-0"><rect x="570" y="58" width="30" height="30"/></clipPath><clipPath id="mx-clip-606-58-144-30-0"><rect x="606" y="58" width="144" height="30"/></clipPath><clipPath id="mx-clip-606-88-144-30-0"><rect x="606" y="88" width="144" height="30"/></clipPath><clipPath id="mx-clip-606-118-144-30-0"><rect x="606" y="118" width="144" height="30"/></clipPath><clipPath id="mx-clip-570-313-30-30-0"><rect x="570" y="313" width="30" height="30"/></clipPath><clipPath id="mx-clip-606-313-144-30-0"><rect x="606" y="313" width="144" height="30"/></clipPath><clipPath id="mx-clip-570-343-30-30-0"><rect x="570" y="343" width="30" height="30"/></clipPath><clipPath id="mx-clip-606-343-144-30-0"><rect x="606" y="343" width="144" height="30"/></clipPath><clipPath id="mx-clip-606-373-144-30-0"><rect x="606" y="373" width="144" height="30"/></clipPath><clipPath id="mx-clip-606-403-144-30-0"><rect x="606" y="403" width="144" height="30"/></clipPath><clipPath id="mx-clip-606-433-144-30-0"><rect x="606" y="433" width="144" height="30"/></clipPath></defs><g><rect x="0" y="3" width="770" height="850" fill="#ffffff" stroke="none" pointer-events="all"/><path d="M 110 193 L 110 283" fill="none" stroke="#000000" stroke-miterlimit="10" pointer-events="stroke"/><path d="M 114 197 L 106 197 M 114 201 L 106 201" fill="none" stroke="#000000" stroke-miterlimit="10" pointer-events="all"/><ellipse cx="110" cy="271" rx="3" ry="3" fill="#ffffff" stroke="#000000" pointer-events="all"/><path d="M 114 283 L 110 275 L 106 283" fill="none" stroke="#000000" stroke-miterlimit="10" pointer-events="all"/><path d="M 20 63 L 20 33 L 200 33 L 200 63" fill="#ffffff" stroke="#000000" stroke-miterlimit="10" pointer-events="all"/><path d="M 20 63 L 20 193 L 200 193 L 200 63" fill="none" stroke="#000000" stroke-miterlimit="10" pointer-events="none"/><path d="M 20 63 L 200 63" fill="none" stroke="#000000" stroke-miterlimit="10" pointer-events="none"/><path d="M 50 63 L 50 193" fill="none" stroke="#000000" stroke-miterlimit="10" pointer-events="none"/><g fill="#000000" font-family="Helvetica" font-weight="bold" pointer-events="none" text-anchor="middle" font-size="12px"><text x="109.5" y="52.5">Users</text></g><path d="M 20 63 M 200 63 M 200 93 L 20 93" fill="none" stroke="#000000" stroke-miterlimit="10" pointer-events="none"/><path d="M 20 63 M 50 63 M 50 93 M 20 93" fill="none" stroke="#000000" stroke-miterlimit="10" pointer-events="none"/><g fill="#000000" font-family="Helvetica" font-weight="bold" pointer-events="none" clip-path="url(#mx-clip-20-63-30-30-0)" text-anchor="middle" font-size="12px"><text x="34.5" y="82.5">PK</text></g><path d="M 50 63 M 200 63 M 200 93 M 50 93" fill="none" stroke="#000000" stroke-miterlimit="10" pointer-events="none"/><g fill="#000000" font-family="Helvetica" font-weight="bold" text-decoration="underline" pointer-events="none" clip-path="url(#mx-clip-56-63-144-30-0)" font-size="12px"><text x="57.5" y="82.5">Id</text></g><path d="M 20 93 M 200 93 M 200 123 M 20 123" fill="none" stroke="#000000" stroke-miterlimit="10" pointer-events="none"/><path d="M 20 93 M 50 93 M 50 123 M 20 123" fill="none" stroke="#000000" stroke-miterlimit="10" pointer-events="none"/><path d="M 50 93 M 200 93 M 200 123 M 50 123" fill="none" stroke="#000000" stroke-miterlimit="10" pointer-events="none"/><g fill="#000000" font-family="Helvetica" pointer-events="none" clip-path="url(#mx-clip-56-93-144-30-0)" font-size="12px"><text x="57.5" y="112.5">Email</text></g><path d="M 20 123 M 200 123 M 200 153 M 20 153" fill="none" stroke="#000000" stroke-miterlimit="10" pointer-events="none"/><path d="M 20 123 M 50 123 M 50 153 M 20 153" fill="none" stroke="#000000" stroke-miterlimit="10" pointer-events="none"/><path d="M 50 123 M 200 123 M 200 153 M 50 153" fill="none" stroke="#000000" stroke-miterlimit="10" pointer-events="none"/><g fill="#000000" font-family="Helvetica" pointer-events="none" clip-path="url(#mx-clip-56-123-144-30-0)" font-size="12px"><text x="57.5" y="142.5">Password</text></g><path d="M 20 153 M 200 153 M 200 183 M 20 183" fill="none" stroke="#000000" stroke-miterlimit="10" pointer-events="none"/><path d="M 20 153 M 50 153 M 50 183 M 20 183" fill="none" stroke="#000000" stroke-miterlimit="10" pointer-events="none"/><path d="M 50 153 M 200 153 M 200 183 M 50 183" fill="none" stroke="#000000" stroke-miterlimit="10" pointer-events="none"/><g fill="#000000" font-family="Helvetica" pointer-events="none" clip-path="url(#mx-clip-56-153-144-30-0)" font-size="12px"><text x="57.5" y="172.5">Role</text></g><path d="M 20 313 L 20 283 L 200 283 L 200 313" fill="#ffffff" stroke="#000000" stroke-miterlimit="10" pointer-events="none"/><path d="M 20 313 L 20 493 L 200 493 L 200 313" fill="none" stroke="#000000" stroke-miterlimit="10" pointer-events="none"/><path d="M 20 313 L 200 313" fill="none" stroke="#000000" stroke-miterlimit="10" pointer-events="none"/><path d="M 50 313 L 50 493" fill="none" stroke="#000000" stroke-miterlimit="10" pointer-events="none"/><g fill="#000000" font-family="Helvetica" font-weight="bold" pointer-events="none" text-anchor="middle" font-size="12px"><text x="109.5" y="302.5">Customers</text></g><path d="M 20 313 M 200 313 M 200 343 L 20 343" fill="none" stroke="#000000" stroke-miterlimit="10" pointer-events="none"/><path d="M 20 313 M 50 313 M 50 343 M 20 343" fill="none" stroke="#000000" stroke-miterlimit="10" pointer-events="none"/><g fill="#000000" font-family="Helvetica" font-weight="bold" pointer-events="none" clip-path="url(#mx-clip-20-313-30-30-0)" text-anchor="middle" font-size="12px"><text x="34.5" y="332.5">PK</text></g><path d="M 50 313 M 200 313 M 200 343 M 50 343" fill="none" stroke="#000000" stroke-miterlimit="10" pointer-events="none"/><g fill="#000000" font-family="Helvetica" font-weight="bold" text-decoration="underline" pointer-events="none" clip-path="url(#mx-clip-56-313-144-30-0)" font-size="12px"><text x="57.5" y="332.5">Id</text></g><path d="M 20 343 M 200 343 M 200 373 M 20 373" fill="none" stroke="#000000" stroke-miterlimit="10" pointer-events="none"/><path d="M 20 343 M 50 343 M 50 373 M 20 373" fill="none" stroke="#000000" stroke-miterlimit="10" pointer-events="none"/><g fill="#000000" font-family="Helvetica" pointer-events="none" clip-path="url(#mx-clip-20-343-30-30-0)" text-anchor="middle" font-size="12px"><text x="34.5" y="362.5">FK</text></g><path d="M 50 343 M 200 343 M 200 373 M 50 373" fill="none" stroke="#000000" stroke-miterlimit="10" pointer-events="none"/><g fill="#000000" font-family="Helvetica" pointer-events="none" clip-path="url(#mx-clip-56-343-144-30-0)" font-size="12px"><text x="57.5" y="362.5">UserID_FK</text></g><path d="M 20 373 M 200 373 M 200 403 M 20 403" fill="none" stroke="#000000" stroke-miterlimit="10" pointer-events="none"/><path d="M 20 373 M 50 373 M 50 403 M 20 403" fill="none" stroke="#000000" stroke-miterlimit="10" pointer-events="none"/><path d="M 50 373 M 200 373 M 200 403 M 50 403" fill="none" stroke="#000000" stroke-miterlimit="10" pointer-events="none"/><g fill="#000000" font-family="Helvetica" pointer-events="none" clip-path="url(#mx-clip-56-373-144-30-0)" font-size="12px"><text x="57.5" y="392.5">Firstname</text></g><path d="M 20 403 M 200 403 M 200 433 M 20 433" fill="none" stroke="#000000" stroke-miterlimit="10" pointer-events="none"/><path d="M 20 403 M 50 403 M 50 433 M 20 433" fill="none" stroke="#000000" stroke-miterlimit="10" pointer-events="none"/><path d="M 50 403 M 200 403 M 200 433 M 50 433" fill="none" stroke="#000000" stroke-miterlimit="10" pointer-events="none"/><g fill="#000000" font-family="Helvetica" pointer-events="none" clip-path="url(#mx-clip-56-403-144-30-0)" font-size="12px"><text x="57.5" y="422.5">Surname</text></g><path d="M 20 433 M 200 433 M 200 463 M 20 463" fill="none" stroke="#000000" stroke-miterlimit="10" pointer-events="none"/><path d="M 20 433 M 50 433 M 50 463 M 20 463" fill="none" stroke="#000000" stroke-miterlimit="10" pointer-events="none"/><path d="M 50 433 M 200 433 M 200 463 M 50 463" fill="none" stroke="#000000" stroke-miterlimit="10" pointer-events="none"/><g fill="#000000" font-family="Helvetica" pointer-events="none" clip-path="url(#mx-clip-56-433-144-30-0)" font-size="12px"><text x="57.5" y="452.5">Website</text></g><path d="M 20 463 M 200 463 M 200 493 M 20 493" fill="none" stroke="#000000" stroke-miterlimit="10" pointer-events="none"/><path d="M 20 463 M 50 463 M 50 493 M 20 493" fill="none" stroke="#000000" stroke-miterlimit="10" pointer-events="none"/><path d="M 50 463 M 200 463 M 200 493 M 50 493" fill="none" stroke="#000000" stroke-miterlimit="10" pointer-events="none"/><path d="M 20 613 L 20 583 L 200 583 L 200 613" fill="#ffffff" stroke="#000000" stroke-miterlimit="10" pointer-events="none"/><path d="M 20 613 L 20 773 L 200 773 L 200 613" fill="none" stroke="#000000" stroke-miterlimit="10" pointer-events="none"/><path d="M 20 613 L 200 613" fill="none" stroke="#000000" stroke-miterlimit="10" pointer-events="none"/><path d="M 50 613 L 50 773" fill="none" stroke="#000000" stroke-miterlimit="10" pointer-events="none"/><g fill="#000000" font-family="Helvetica" font-weight="bold" pointer-events="none" text-anchor="middle" font-size="12px"><text x="109.5" y="602.5">Addresses</text></g><path d="M 20 613 M 200 613 M 200 643 L 20 643" fill="none" stroke="#000000" stroke-miterlimit="10" pointer-events="none"/><path d="M 20 613 M 50 613 M 50 643 M 20 643" fill="none" stroke="#000000" stroke-miterlimit="10" pointer-events="none"/><g fill="#000000" font-family="Helvetica" font-weight="bold" pointer-events="none" clip-path="url(#mx-clip-20-613-30-30-0)" text-anchor="middle" font-size="12px"><text x="34.5" y="632.5">PK</text></g><path d="M 50 613 M 200 613 M 200 643 M 50 643" fill="none" stroke="#000000" stroke-miterlimit="10" pointer-events="none"/><g fill="#000000" font-family="Helvetica" font-weight="bold" text-decoration="underline" pointer-events="none" clip-path="url(#mx-clip-56-613-144-30-0)" font-size="12px"><text x="57.5" y="632.5">Id</text></g><path d="M 20 643 M 200 643 M 200 673 M 20 673" fill="none" stroke="#000000" stroke-miterlimit="10" pointer-events="none"/><path d="M 20 643 M 50 643 M 50 673 M 20 673" fill="none" stroke="#000000" stroke-miterlimit="10" pointer-events="none"/><path d="M 50 643 M 200 643 M 200 673 M 50 673" fill="none" stroke="#000000" stroke-miterlimit="10" pointer-events="none"/><g fill="#000000" font-family="Helvetica" pointer-events="none" clip-path="url(#mx-clip-56-643-144-30-0)" font-size="12px"><text x="57.5" y="662.5">Street</text></g><path d="M 20 673 M 200 673 M 200 703 M 20 703" fill="none" stroke="#000000" stroke-miterlimit="10" pointer-events="none"/><path d="M 20 673 M 50 673 M 50 703 M 20 703" fill="none" stroke="#000000" stroke-miterlimit="10" pointer-events="none"/><path d="M 50 673 M 200 673 M 200 703 M 50 703" fill="none" stroke="#000000" stroke-miterlimit="10" pointer-events="none"/><g fill="#000000" font-family="Helvetica" pointer-events="none" clip-path="url(#mx-clip-56-673-144-30-0)" font-size="12px"><text x="57.5" y="692.5">Number</text></g><path d="M 20 703 M 200 703 M 200 733 M 20 733" fill="none" stroke="#000000" stroke-miterlimit="10" pointer-events="none"/><path d="M 20 703 M 50 703 M 50 733 M 20 733" fill="none" stroke="#000000" stroke-miterlimit="10" pointer-events="none"/><path d="M 50 703 M 200 703 M 200 733 M 50 733" fill="none" stroke="#000000" stroke-miterlimit="10" pointer-events="none"/><g fill="#000000" font-family="Helvetica" pointer-events="none" clip-path="url(#mx-clip-56-703-144-30-0)" font-size="12px"><text x="57.5" y="722.5">Zip</text></g><path d="M 20 733 M 200 733 M 200 763 M 20 763" fill="none" stroke="#000000" stroke-miterlimit="10" pointer-events="none"/><path d="M 20 733 M 50 733 M 50 763 M 20 763" fill="none" stroke="#000000" stroke-miterlimit="10" pointer-events="none"/><path d="M 50 733 M 200 733 M 200 763 M 50 763" fill="none" stroke="#000000" stroke-miterlimit="10" pointer-events="none"/><g fill="#000000" font-family="Helvetica" pointer-events="none" clip-path="url(#mx-clip-56-733-144-30-0)" font-size="12px"><text x="57.5" y="752.5">Location</text></g><path d="M 374 463 L 374 573" fill="none" stroke="#000000" stroke-miterlimit="10" pointer-events="none"/><path d="M 378 467 L 370 467 M 378 471 L 370 471" fill="none" stroke="#000000" stroke-miterlimit="10" pointer-events="none"/><ellipse cx="374" cy="561" rx="3" ry="3" fill="#ffffff" stroke="#000000" pointer-events="none"/><path d="M 378 573 L 374 565 L 370 573" fill="none" stroke="#000000" stroke-miterlimit="10" pointer-events="none"/><path d="M 284 313 L 284 283 L 464 283 L 464 313" fill="#ffffff" stroke="#000000" stroke-miterlimit="10" pointer-events="none"/><path d="M 284 313 L 284 463 L 464 463 L 464 313" fill="none" stroke="#000000" stroke-miterlimit="10" pointer-events="none"/><path d="M 284 313 L 464 313" fill="none" stroke="#000000" stroke-miterlimit="10" pointer-events="none"/><path d="M 314 313 L 314 463" fill="none" stroke="#000000" stroke-miterlimit="10" pointer-events="none"/><g fill="#000000" font-family="Helvetica" font-weight="bold" pointer-events="none" text-anchor="middle" font-size="12px"><text x="373.5" y="302.5">Orders</text></g><path d="M 284 313 M 464 313 M 464 343 L 284 343" fill="none" stroke="#000000" stroke-miterlimit="10" pointer-events="none"/><path d="M 284 313 M 314 313 M 314 343 M 284 343" fill="none" stroke="#000000" stroke-miterlimit="10" pointer-events="none"/><g fill="#000000" font-family="Helvetica" font-weight="bold" pointer-events="none" clip-path="url(#mx-clip-284-313-30-30-0)" text-anchor="middle" font-size="12px"><text x="298.5" y="332.5">PK</text></g><path d="M 314 313 M 464 313 M 464 343 M 314 343" fill="none" stroke="#000000" stroke-miterlimit="10" pointer-events="none"/><g fill="#000000" font-family="Helvetica" font-weight="bold" text-decoration="underline" pointer-events="none" clip-path="url(#mx-clip-320-313-144-30-0)" font-size="12px"><text x="321.5" y="332.5">Id</text></g><path d="M 284 343 M 464 343 M 464 373 M 284 373" fill="none" stroke="#000000" stroke-miterlimit="10" pointer-events="none"/><path d="M 284 343 M 314 343 M 314 373 M 284 373" fill="none" stroke="#000000" stroke-miterlimit="10" pointer-events="none"/><g fill="#000000" font-family="Helvetica" pointer-events="none" clip-path="url(#mx-clip-284-343-30-30-0)" text-anchor="middle" font-size="12px"><text x="298.5" y="362.5">FK</text></g><path d="M 314 343 M 464 343 M 464 373 M 314 373" fill="none" stroke="#000000" stroke-miterlimit="10" pointer-events="none"/><g fill="#000000" font-family="Helvetica" pointer-events="none" clip-path="url(#mx-clip-320-343-144-30-0)" font-size="12px"><text x="321.5" y="362.5">CustomerId_FK</text></g><path d="M 284 373 M 464 373 M 464 403 M 284 403" fill="none" stroke="#000000" stroke-miterlimit="10" pointer-events="none"/><path d="M 284 373 M 314 373 M 314 403 M 284 403" fill="none" stroke="#000000" stroke-miterlimit="10" pointer-events="none"/><g fill="#000000" font-family="Helvetica" pointer-events="none" clip-path="url(#mx-clip-284-373-30-30-0)" text-anchor="middle" font-size="12px"><text x="298.5" y="392.5">FK</text></g><path d="M 314 373 M 464 373 M 464 403 M 314 403" fill="none" stroke="#000000" stroke-miterlimit="10" pointer-events="none"/><g fill="#000000" font-family="Helvetica" pointer-events="none" clip-path="url(#mx-clip-320-373-144-30-0)" font-size="12px"><text x="321.5" y="392.5">DeliveryAddressId_FK</text></g><path d="M 284 403 M 464 403 M 464 433 M 284 433" fill="none" stroke="#000000" stroke-miterlimit="10" pointer-events="none"/><path d="M 284 403 M 314 403 M 314 433 M 284 433" fill="none" stroke="#000000" stroke-miterlimit="10" pointer-events="none"/><path d="M 314 403 M 464 403 M 464 433 M 314 433" fill="none" stroke="#000000" stroke-miterlimit="10" pointer-events="none"/><g fill="#000000" font-family="Helvetica" pointer-events="none" clip-path="url(#mx-clip-320-403-144-30-0)" font-size="12px"><text x="321.5" y="422.5">From</text></g><path d="M 284 433 M 464 433 M 464 463 M 284 463" fill="none" stroke="#000000" stroke-miterlimit="10" pointer-events="none"/><path d="M 284 433 M 314 433 M 314 463 M 284 463" fill="none" stroke="#000000" stroke-miterlimit="10" pointer-events="none"/><path d="M 314 433 M 464 433 M 464 463 M 314 463" fill="none" stroke="#000000" stroke-miterlimit="10" pointer-events="none"/><g fill="#000000" font-family="Helvetica" pointer-events="none" clip-path="url(#mx-clip-320-433-144-30-0)" font-size="12px"><text x="321.5" y="452.5">Number</text></g><path d="M 284 603 L 284 573 L 464 573 L 464 603" fill="#ffffff" stroke="#000000" stroke-miterlimit="10" pointer-events="none"/><path d="M 284 603 L 284 823 L 464 823 L 464 603" fill="none" stroke="#000000" stroke-miterlimit="10" pointer-events="none"/><path d="M 284 603 L 464 603" fill="none" stroke="#000000" stroke-miterlimit="10" pointer-events="none"/><path d="M 314 603 L 314 823" fill="none" stroke="#000000" stroke-miterlimit="10" pointer-events="none"/><g fill="#000000" font-family="Helvetica" font-weight="bold" pointer-events="none" text-anchor="middle" font-size="12px"><text x="373.5" y="592.5">Invoices</text></g><path d="M 284 603 M 464 603 M 464 633 L 284 633" fill="none" stroke="#000000" stroke-miterlimit="10" pointer-events="none"/><path d="M 284 603 M 314 603 M 314 633 M 284 633" fill="none" stroke="#000000" stroke-miterlimit="10" pointer-events="none"/><g fill="#000000" font-family="Helvetica" font-weight="bold" pointer-events="none" clip-path="url(#mx-clip-284-603-30-30-0)" text-anchor="middle" font-size="12px"><text x="298.5" y="622.5">PK</text></g><path d="M 314 603 M 464 603 M 464 633 M 314 633" fill="none" stroke="#000000" stroke-miterlimit="10" pointer-events="none"/><g fill="#000000" font-family="Helvetica" font-weight="bold" text-decoration="underline" pointer-events="none" clip-path="url(#mx-clip-320-603-144-30-0)" font-size="12px"><text x="321.5" y="622.5">Id</text></g><path d="M 284 633 M 464 633 M 464 663 M 284 663" fill="none" stroke="#000000" stroke-miterlimit="10" pointer-events="none"/><path d="M 284 633 M 314 633 M 314 663 M 284 663" fill="none" stroke="#000000" stroke-miterlimit="10" pointer-events="none"/><g fill="#000000" font-family="Helvetica" pointer-events="none" clip-path="url(#mx-clip-284-633-30-30-0)" text-anchor="middle" font-size="12px"><text x="298.5" y="652.5">FK</text></g><path d="M 314 633 M 464 633 M 464 663 M 314 663" fill="none" stroke="#000000" stroke-miterlimit="10" pointer-events="none"/><g fill="#000000" font-family="Helvetica" pointer-events="none" clip-path="url(#mx-clip-320-633-144-30-0)" font-size="12px"><text x="321.5" y="652.5">InvoiceAdressId_FK</text></g><path d="M 284 663 M 464 663 M 464 693 M 284 693" fill="none" stroke="#000000" stroke-miterlimit="10" pointer-events="none"/><path d="M 284 663 M 314 663 M 314 693 M 284 693" fill="none" stroke="#000000" stroke-miterlimit="10" pointer-events="none"/><path d="M 314 663 M 464 663 M 464 693 M 314 693" fill="none" stroke="#000000" stroke-miterlimit="10" pointer-events="none"/><g fill="#000000" font-family="Helvetica" pointer-events="none" clip-path="url(#mx-clip-320-663-144-30-0)" font-size="12px"><text x="321.5" y="682.5">Date</text></g><path d="M 284 693 M 464 693 M 464 723 M 284 723" fill="none" stroke="#000000" stroke-miterlimit="10" pointer-events="none"/><path d="M 284 693 M 314 693 M 314 723 M 284 723" fill="none" stroke="#000000" stroke-miterlimit="10" pointer-events="none"/><path d="M 314 693 M 464 693 M 464 723 M 314 723" fill="none" stroke="#000000" stroke-miterlimit="10" pointer-events="none"/><g fill="#000000" font-family="Helvetica" pointer-events="none" clip-path="url(#mx-clip-320-693-144-30-0)" font-size="12px"><text x="321.5" y="712.5">Number</text></g><path d="M 284 723 M 464 723 M 464 753 M 284 753" fill="none" stroke="#000000" stroke-miterlimit="10" pointer-events="none"/><path d="M 284 723 M 314 723 M 314 753 M 284 753" fill="none" stroke="#000000" stroke-miterlimit="10" pointer-events="none"/><path d="M 314 723 M 464 723 M 464 753 M 314 753" fill="none" stroke="#000000" stroke-miterlimit="10" pointer-events="none"/><g fill="#000000" font-family="Helvetica" pointer-events="none" clip-path="url(#mx-clip-320-723-144-30-0)" font-size="12px"><text x="321.5" y="742.5">Netto</text></g><path d="M 284 753 M 464 753 M 464 783 M 284 783" fill="none" stroke="#000000" stroke-miterlimit="10" pointer-events="none"/><path d="M 284 753 M 314 753 M 314 783 M 284 783" fill="none" stroke="#000000" stroke-miterlimit="10" pointer-events="none"/><path d="M 314 753 M 464 753 M 464 783 M 314 783" fill="none" stroke="#000000" stroke-miterlimit="10" pointer-events="none"/><g fill="#000000" font-family="Helvetica" pointer-events="none" clip-path="url(#mx-clip-320-753-144-30-0)" font-size="12px"><text x="321.5" y="772.5">Brutto</text></g><path d="M 284 783 M 464 783 M 464 813 M 284 813" fill="none" stroke="#000000" stroke-miterlimit="10" pointer-events="none"/><path d="M 284 783 M 314 783 M 314 813 M 284 813" fill="none" stroke="#000000" stroke-miterlimit="10" pointer-events="none"/><path d="M 314 783 M 464 783 M 464 813 M 314 813" fill="none" stroke="#000000" stroke-miterlimit="10" pointer-events="none"/><g fill="#000000" font-family="Helvetica" pointer-events="none" clip-path="url(#mx-clip-320-783-144-30-0)" font-size="12px"><text x="321.5" y="802.5">Tax</text></g><path d="M 570 613 L 570 583 L 750 583 L 750 613" fill="#ffffff" stroke="#000000" stroke-miterlimit="10" pointer-events="none"/><path d="M 570 613 L 570 773 L 750 773 L 750 613" fill="none" stroke="#000000" stroke-miterlimit="10" pointer-events="none"/><path d="M 570 613 L 750 613" fill="none" stroke="#000000" stroke-miterlimit="10" pointer-events="none"/><path d="M 620 613 L 620 773" fill="none" stroke="#000000" stroke-miterlimit="10" pointer-events="none"/><g fill="#000000" font-family="Helvetica" font-weight="bold" pointer-events="none" text-anchor="middle" font-size="12px"><text x="659.5" y="602.5">Positions</text></g><path d="M 570 613 M 750 613 M 750 643 L 570 643" fill="none" stroke="#000000" stroke-miterlimit="10" pointer-events="none"/><path d="M 570 613 M 620 613 M 620 643 M 570 643" fill="none" stroke="#000000" stroke-miterlimit="10" pointer-events="none"/><g fill="#000000" font-family="Helvetica" font-weight="bold" pointer-events="none" clip-path="url(#mx-clip-570-613-50-30-0)" text-anchor="middle" font-size="12px"><text x="594.5" y="632.5">PK/FK</text></g><path d="M 620 613 M 750 613 M 750 643 M 620 643" fill="none" stroke="#000000" stroke-miterlimit="10" pointer-events="none"/><g fill="#000000" font-family="Helvetica" font-weight="bold" text-decoration="underline" pointer-events="none" clip-path="url(#mx-clip-626-613-124-30-0)" font-size="12px"><text x="627.5" y="632.5">OrderId_FK</text></g><path d="M 570 643 M 750 643 M 750 673 L 570 673" fill="none" stroke="#000000" stroke-miterlimit="10" pointer-events="none"/><path d="M 570 643 M 620 643 M 620 673 M 570 673" fill="none" stroke="#000000" stroke-miterlimit="10" pointer-events="none"/><g fill="#000000" font-family="Helvetica" font-weight="bold" pointer-events="none" clip-path="url(#mx-clip-570-643-50-30-0)" text-anchor="middle" font-size="12px"><text x="594.5" y="662.5">PK/FK</text></g><path d="M 620 643 M 750 643 M 750 673 M 620 673" fill="none" stroke="#000000" stroke-miterlimit="10" pointer-events="none"/><g fill="#000000" font-family="Helvetica" font-weight="bold" text-decoration="underline" pointer-events="none" clip-path="url(#mx-clip-626-643-124-30-0)" font-size="12px"><text x="627.5" y="662.5">ArticleId_FK</text></g><path d="M 570 673 M 750 673 M 750 703 M 570 703" fill="none" stroke="#000000" stroke-miterlimit="10" pointer-events="none"/><path d="M 570 673 M 620 673 M 620 703 M 570 703" fill="none" stroke="#000000" stroke-miterlimit="10" pointer-events="none"/><path d="M 620 673 M 750 673 M 750 703 M 620 703" fill="none" stroke="#000000" stroke-miterlimit="10" pointer-events="none"/><g fill="#000000" font-family="Helvetica" pointer-events="none" clip-path="url(#mx-clip-626-673-124-30-0)" font-size="12px"><text x="627.5" y="692.5">Amount</text></g><path d="M 570 703 M 750 703 M 750 733 M 570 733" fill="none" stroke="#000000" stroke-miterlimit="10" pointer-events="none"/><path d="M 570 703 M 620 703 M 620 733 M 570 733" fill="none" stroke="#000000" stroke-miterlimit="10" pointer-events="none"/><path d="M 620 703 M 750 703 M 750 733 M 620 733" fill="none" stroke="#000000" stroke-miterlimit="10" pointer-events="none"/><g fill="#000000" font-family="Helvetica" pointer-events="none" clip-path="url(#mx-clip-626-703-124-30-0)" font-size="12px"><text x="627.5" y="722.5">Order</text></g><path d="M 570 733 M 750 733 M 750 763 M 570 763" fill="none" stroke="#000000" stroke-miterlimit="10" pointer-events="none"/><path d="M 570 733 M 620 733 M 620 763 M 570 763" fill="none" stroke="#000000" stroke-miterlimit="10" pointer-events="none"/><path d="M 620 733 M 750 733 M 750 763 M 620 763" fill="none" stroke="#000000" stroke-miterlimit="10" pointer-events="none"/><path d="M 660 188 L 660 283" fill="none" stroke="#000000" stroke-miterlimit="10" pointer-events="none"/><path d="M 664 192 L 656 192 M 664 196 L 656 196" fill="none" stroke="#000000" stroke-miterlimit="10" pointer-events="none"/><ellipse cx="660" cy="271" rx="3" ry="3" fill="#ffffff" stroke="#000000" pointer-events="none"/><path d="M 664 283 L 660 275 L 656 283" fill="none" stroke="#000000" stroke-miterlimit="10" pointer-events="none"/><path d="M 570 58 L 570 28 L 750 28 L 750 58" fill="#ffffff" stroke="#000000" stroke-miterlimit="10" pointer-events="none"/><path d="M 570 58 L 570 188 L 750 188 L 750 58" fill="none" stroke="#000000" stroke-miterlimit="10" pointer-events="none"/><path d="M 570 58 L 750 58" fill="none" stroke="#000000" stroke-miterlimit="10" pointer-events="none"/><path d="M 600 58 L 600 188" fill="none" stroke="#000000" stroke-miterlimit="10" pointer-events="none"/><g fill="#000000" font-family="Helvetica" font-weight="bold" pointer-events="none" text-anchor="middle" font-size="12px"><text x="659.5" y="47.5">Articlegroups</text></g><path d="M 570 73 L 550 73 Q 540 73 540 63 L 540 18 Q 540 8 550 8 L 605 8 Q 615 8 615 18 L 615 28" fill="none" stroke="#000000" stroke-miterlimit="10" pointer-events="none"/><ellipse cx="558" cy="73" rx="3" ry="3" fill="#ffffff" stroke="#000000" pointer-events="none"/><path d="M 566 77 L 566 69" fill="none" stroke="#000000" stroke-miterlimit="10" pointer-events="none"/><ellipse cx="615" cy="16" rx="3" ry="3" fill="#ffffff" stroke="#000000" pointer-events="none"/><path d="M 619 28 L 615 20 L 611 28" fill="none" stroke="#000000" stroke-miterlimit="10" pointer-events="none"/><path d="M 570 58 M 750 58 M 750 88 L 570 88" fill="none" stroke="#000000" stroke-miterlimit="10" pointer-events="none"/><path d="M 570 58 M 600 58 M 600 88 M 570 88" fill="none" stroke="#000000" stroke-miterlimit="10" pointer-events="none"/><g fill="#000000" font-family="Helvetica" font-weight="bold" pointer-events="none" clip-path="url(#mx-clip-570-58-30-30-0)" text-anchor="middle" font-size="12px"><text x="584.5" y="77.5">PK</text></g><path d="M 600 58 M 750 58 M 750 88 M 600 88" fill="none" stroke="#000000" stroke-miterlimit="10" pointer-events="none"/><g fill="#000000" font-family="Helvetica" font-weight="bold" text-decoration="underline" pointer-events="none" clip-path="url(#mx-clip-606-58-144-30-0)" font-size="12px"><text x="607.5" y="77.5">Id</text></g><path d="M 570 88 M 750 88 M 750 118 M 570 118" fill="none" stroke="#000000" stroke-miterlimit="10" pointer-events="none"/><path d="M 570 88 M 600 88 M 600 118 M 570 118" fill="none" stroke="#000000" stroke-miterlimit="10" pointer-events="none"/><path d="M 600 88 M 750 88 M 750 118 M 600 118" fill="none" stroke="#000000" stroke-miterlimit="10" pointer-events="none"/><g fill="#000000" font-family="Helvetica" pointer-events="none" clip-path="url(#mx-clip-606-88-144-30-0)" font-size="12px"><text x="607.5" y="107.5">ArticleGroupId_FK</text></g><path d="M 570 118 M 750 118 M 750 148 M 570 148" fill="none" stroke="#000000" stroke-miterlimit="10" pointer-events="none"/><path d="M 570 118 M 600 118 M 600 148 M 570 148" fill="none" stroke="#000000" stroke-miterlimit="10" pointer-events="none"/><path d="M 600 118 M 750 118 M 750 148 M 600 148" fill="none" stroke="#000000" stroke-miterlimit="10" pointer-events="none"/><g fill="#000000" font-family="Helvetica" pointer-events="none" clip-path="url(#mx-clip-606-118-144-30-0)" font-size="12px"><text x="607.5" y="137.5">Name</text></g><path d="M 570 148 M 750 148 M 750 178 M 570 178" fill="none" stroke="#000000" stroke-miterlimit="10" pointer-events="none"/><path d="M 570 148 M 600 148 M 600 178 M 570 178" fill="none" stroke="#000000" stroke-miterlimit="10" pointer-events="none"/><path d="M 600 148 M 750 148 M 750 178 M 600 178" fill="none" stroke="#000000" stroke-miterlimit="10" pointer-events="none"/><path d="M 660 473 L 660 583" fill="none" stroke="#000000" stroke-miterlimit="10" pointer-events="none"/><path d="M 664 477 L 656 477 M 664 481 L 656 481" fill="none" stroke="#000000" stroke-miterlimit="10" pointer-events="none"/><ellipse cx="660" cy="571" rx="3" ry="3" fill="#ffffff" stroke="#000000" pointer-events="none"/><path d="M 664 583 L 660 575 L 656 583" fill="none" stroke="#000000" stroke-miterlimit="10" pointer-events="none"/><path d="M 570 313 L 570 283 L 750 283 L 750 313" fill="#ffffff" stroke="#000000" stroke-miterlimit="10" pointer-events="none"/><path d="M 570 313 L 570 473 L 750 473 L 750 313" fill="none" stroke="#000000" stroke-miterlimit="10" pointer-events="none"/><path d="M 570 313 L 750 313" fill="none" stroke="#000000" stroke-miterlimit="10" pointer-events="none"/><path d="M 600 313 L 600 473" fill="none" stroke="#000000" stroke-miterlimit="10" pointer-events="none"/><g fill="#000000" font-family="Helvetica" font-weight="bold" pointer-events="none" text-anchor="middle" font-size="12px"><text x="659.5" y="302.5">Article</text></g><path d="M 570 313 M 750 313 M 750 343 L 570 343" fill="none" stroke="#000000" stroke-miterlimit="10" pointer-events="none"/><path d="M 570 313 M 600 313 M 600 343 M 570 343" fill="none" stroke="#000000" stroke-miterlimit="10" pointer-events="none"/><g fill="#000000" font-family="Helvetica" font-weight="bold" pointer-events="none" clip-path="url(#mx-clip-570-313-30-30-0)" text-anchor="middle" font-size="12px"><text x="584.5" y="332.5">PK</text></g><path d="M 600 313 M 750 313 M 750 343 M 600 343" fill="none" stroke="#000000" stroke-miterlimit="10" pointer-events="none"/><g fill="#000000" font-family="Helvetica" font-weight="bold" text-decoration="underline" pointer-events="none" clip-path="url(#mx-clip-606-313-144-30-0)" font-size="12px"><text x="607.5" y="332.5">Id</text></g><path d="M 570 343 M 750 343 M 750 373 M 570 373" fill="none" stroke="#000000" stroke-miterlimit="10" pointer-events="none"/><path d="M 570 343 M 600 343 M 600 373 M 570 373" fill="none" stroke="#000000" stroke-miterlimit="10" pointer-events="none"/><g fill="#000000" font-family="Helvetica" pointer-events="none" clip-path="url(#mx-clip-570-343-30-30-0)" text-anchor="middle" font-size="12px"><text x="584.5" y="362.5">FK</text></g><path d="M 600 343 M 750 343 M 750 373 M 600 373" fill="none" stroke="#000000" stroke-miterlimit="10" pointer-events="none"/><g fill="#000000" font-family="Helvetica" pointer-events="none" clip-path="url(#mx-clip-606-343-144-30-0)" font-size="12px"><text x="607.5" y="362.5">ArticleGroupID_FK</text></g><path d="M 570 373 M 750 373 M 750 403 M 570 403" fill="none" stroke="#000000" stroke-miterlimit="10" pointer-events="none"/><path d="M 570 373 M 600 373 M 600 403 M 570 403" fill="none" stroke="#000000" stroke-miterlimit="10" pointer-events="none"/><path d="M 600 373 M 750 373 M 750 403 M 600 403" fill="none" stroke="#000000" stroke-miterlimit="10" pointer-events="none"/><g fill="#000000" font-family="Helvetica" pointer-events="none" clip-path="url(#mx-clip-606-373-144-30-0)" font-size="12px"><text x="607.5" y="392.5">Number</text></g><path d="M 570 403 M 750 403 M 750 433 M 570 433" fill="none" stroke="#000000" stroke-miterlimit="10" pointer-events="none"/><path d="M 570 403 M 600 403 M 600 433 M 570 433" fill="none" stroke="#000000" stroke-miterlimit="10" pointer-events="none"/><path d="M 600 403 M 750 403 M 750 433 M 600 433" fill="none" stroke="#000000" stroke-miterlimit="10" pointer-events="none"/><g fill="#000000" font-family="Helvetica" pointer-events="none" clip-path="url(#mx-clip-606-403-144-30-0)" font-size="12px"><text x="607.5" y="422.5">Description</text></g><path d="M 570 433 M 750 433 M 750 463 M 570 463" fill="none" stroke="#000000" stroke-miterlimit="10" pointer-events="none"/><path d="M 570 433 M 600 433 M 600 463 M 570 463" fill="none" stroke="#000000" stroke-miterlimit="10" pointer-events="none"/><path d="M 600 433 M 750 433 M 750 463 M 600 463" fill="none" stroke="#000000" stroke-miterlimit="10" pointer-events="none"/><g fill="#000000" font-family="Helvetica" pointer-events="none" clip-path="url(#mx-clip-606-433-144-30-0)" font-size="12px"><text x="607.5" y="452.5">Price</text></g><path d="M 110 493 L 110 583" fill="none" stroke="#000000" stroke-miterlimit="10" pointer-events="none"/><path d="M 114 497 L 106 497 M 114 501 L 106 501" fill="none" stroke="#000000" stroke-miterlimit="10" pointer-events="none"/><path d="M 106 575 L 114 575 M 114 583 L 110 575 L 106 583" fill="none" stroke="#000000" stroke-miterlimit="10" pointer-events="none"/><path d="M 200 388 L 232 388 Q 242 388 242 378 L 242 368 Q 242 358 252 358 L 284 358" fill="none" stroke="#000000" stroke-miterlimit="10" pointer-events="none"/><path d="M 204 384 L 204 392 M 208 384 L 208 392" fill="none" stroke="#000000" stroke-miterlimit="10" pointer-events="none"/><ellipse cx="272" cy="358" rx="3" ry="3" fill="#ffffff" stroke="#000000" pointer-events="none"/><path d="M 284 354 L 276 358 L 284 362" fill="none" stroke="#000000" stroke-miterlimit="10" pointer-events="none"/><path d="M 200 628 L 232 628 Q 242 628 242 618 L 242 398 Q 242 388 252 388 L 284 388" fill="none" stroke="#000000" stroke-miterlimit="10" pointer-events="none"/><path d="M 204 624 L 204 632 M 208 624 L 208 632" fill="none" stroke="#000000" stroke-miterlimit="10" pointer-events="none"/><ellipse cx="272" cy="388" rx="3" ry="3" fill="#ffffff" stroke="#000000" pointer-events="none"/><path d="M 284 384 L 276 388 L 284 392" fill="none" stroke="#000000" stroke-miterlimit="10" pointer-events="none"/><path d="M 200 688 L 232 688 Q 242 688 242 678 L 242 658 Q 242 648 252 648 L 284 648" fill="none" stroke="#000000" stroke-miterlimit="10" pointer-events="none"/><path d="M 204 684 L 204 692 M 208 684 L 208 692" fill="none" stroke="#000000" stroke-miterlimit="10" pointer-events="none"/><ellipse cx="272" cy="648" rx="3" ry="3" fill="#ffffff" stroke="#000000" pointer-events="none"/><path d="M 284 644 L 276 648 L 284 652" fill="none" stroke="#000000" stroke-miterlimit="10" pointer-events="none"/><path d="M 464 418 L 507 418 Q 517 418 517 428 L 517 678 Q 517 688 527 688 L 570 688" fill="none" stroke="#000000" stroke-miterlimit="10" pointer-events="none"/><path d="M 468 414 L 468 422 M 472 414 L 472 422" fill="none" stroke="#000000" stroke-miterlimit="10" pointer-events="none"/><path d="M 562 692 L 562 684 M 570 684 L 562 688 L 570 692" fill="none" stroke="#000000" stroke-miterlimit="10" pointer-events="none"/></g></svg>